<?xml version="1.0" encoding="UTF-8"?>
<svg width="569px" height="576px" viewBox="0 0 569 576" version="1.1" xmlns="http://www.w3.org/2000/svg" xmlns:xlink="http://www.w3.org/1999/xlink">
    <!-- Generator: Sketch 48.2 (47327) - http://www.bohemiancoding.com/sketch -->
    <title>circles</title>
    <desc>Created with Sketch.</desc>
    <defs></defs>
    <g id="Homepage" stroke="none" stroke-width="1" fill="none" fill-rule="evenodd" transform="translate(-860.000000, -2664.000000)" opacity="0.08">
        <g id="circles" transform="translate(860.000000, 2663.000000)" fill-rule="nonzero">
            <g id="Group">
                <g fill="#A7B241" id="Shape">
                    <path d="M471.95,211.33 C454.29,97.83 369.18,13.83 267.29,2.53 C251.835607,0.632976749 236.2161,0.492079131 220.73,2.11 C212.85,2.36 205.19,4.5 197.53,5.7 C196.87751,5.9445277 196.209342,6.14497834 195.53,6.3 L196.59,5.92 L191.13,6.92 C186.96,9.53 179.72,11.2 172.44,12.83 C170.320009,13.2506512 168.239294,13.8494421 166.22,14.62 C156.61,18.77 146.84,22.2 137.82,27.62 L139.91,26.76 L141.55,25.99 C141.476287,26.0554638 141.386599,26.100308 141.29,26.12 C141.64,25.94 141.95,25.81 142.29,25.6 L146.86,23.55 C147.26,23.29 147.77,23.12 148.17,22.9 C149.53,22.48 150.77,22.05 152.06,21.62 C150.33,22.26 148.57,22.9 146.86,23.55 C144.706705,24.7873696 142.653747,26.1916732 140.72,27.75 C139.47,28.81 137.56,30.26 136.92,30.87 C138.124122,29.7560777 139.392999,28.7142629 140.72,27.75 C141.91,26.63 142.4,25.81 139.98,26.75 L139.87,26.75 L135.5,28.75 C131.5,31.07 127.39,32.81 123.58,35.47 C121.67,37.06 119.76,38.67 117.89,40.56 C115.38,42.56 113.63,43 111.36,43.86 C92.3550963,57.5887737 75.4336022,73.9915756 61.12,92.56 C59.92,93.71 58.66,95 57.12,96.28 C57.7206828,95.5958988 58.46509,95.0529596 59.3,94.69 C56.41,98.5 53.77,102.69 51,106.76 C49.9302238,107.97974 48.7372157,109.085619 47.44,110.06 C35.81,118.75 29.44,138.52 21.82,153.75 C19.6,157.48 18.45,162.01 16.54,166.85 C5.97,191.63 2.04,217.26 0.95,245.71 C0.22,253.3 1.95,259.98 2.89,266.22 C3.35,270.85 2.95,275.81 3.2,279.62 C3.48,285.51 5.2,290.36 6.48,295.1 C5.48,289.76 4.08,285.99 3.48,279.96 C3.32,275.89 5.08,282.61 6.08,285.14 C6.61,286.2 5.43,288.14 5.9,289.24 L8.08,296.4 C8.56,297.46 7.21,297.59 7.48,298.11 C8.36,301.62 10.41,304.05 10.48,306.32 L10.68,311.32 L11.39,314.2 L12.26,315.95 L18.37,329.95 L18.37,329.87 C17.4133686,327.124474 16.8609257,324.254465 16.73,321.35 C17.06,322.2 17.37,323.02 17.73,323.79 C18.0586414,324.89883 18.2005778,326.054599 18.15,327.21 C18.15,327.21 18.77,328.16 19.01,328.62 C19.1168146,329.135278 18.850499,329.655426 18.37,329.87 L18.99,331.49 C19.1358729,330.010253 19.1358729,328.519747 18.99,327.04 C19.17,327.34 19.24,327.69 19.37,327.93 C19.37,327.93 20.57,333.2 21.15,335.86 C22.81,339.46 23.61,338.98 24.57,339.46 C20.68,328.93 17.57,318.28 14.09,307.36 C14.02,306.8 13.89,306.29 13.84,305.77 L13.2,304.24 L13.4,302.61 L13.24,301.45 C13.13,300.45 12.98,299.02 12.67,297.05 L12.56,296.79 L11.98,292.34 L11.64,290.97 C11.2,289.43 10.76,287.8 11.2,286.73 L11.02,285.52 L11.02,285.79 L11.02,285.28 L10.51,280.22 L10.4,270.16 C9.17,248.03 11.82,227.62 16.26,205.32 C18.74,196.85 21.07,188.51 24.12,180.63 C24.27,182.04 25.02,182.78 24.4,184.27 C19.83,200.1 14.15,212.22 13.86,223.17 C12.93,231.26 13.86,238.75 13.81,245.94 C13.81,240.41 13.81,234.86 14.15,229.03 C17.59,208.49 21.87,189.44 29.71,171.09 C36.08,153.88 42.17,140.53 51.29,125.81 C54.0127665,121.764406 57.0203848,117.917997 60.29,114.3 C65.99,107.79 75.12,94.57 80.6,88.45 C83.15,84.17 83,81.82 82.07,80.45 C82.56,80.07 83,79.51 83.51,79.12 L90.13,73.39 C93.26,70.14 96.52,67.39 99.76,64.54 C104.82,59.99 109.58,54.64 116.04,50.29 C123.89,43.47 136.17,40.65 150.34,34.29 C152.62,33.47 151.05,31.15 155.87,29.82 C166.72,26.16 176.29,24.16 186.48,21.66 C191.16,20.76 198.07,16.06 203.02,16.06 C214.43,13.92 243.34,17.46 226.4,17.98 C201.26,19.18 184.66,22.43 163.1,30.3 C182.55,23.72 203.57,19.61 228.04,18.41 C243.45,17.13 264.25,17.41 283.04,22.01 C308.57,29.28 333.34,42.47 358.68,60.82 C456.88,131.73 476.39,271.33 419.82,371.6 C409.446345,388.861047 397.085354,404.846765 382.99,419.23 C357.99,446.66 321.31,464.3 285.79,472.81 C249.79,481.28 214.85,479.06 185.1,476.91 C144.16,476.79 88.86,429.16 111.97,442.33 C87.86,427.19 73.76,410.71 63.19,397.06 C51.32,382.21 43.3,369.79 31.73,356.49 C29.782185,354.387028 27.4763857,352.646675 24.92,351.35 L24.32,349.12 C23.85,347.12 21.52,345.28 19.94,342.41 C21.39,345.15 22.94,347.72 24.38,350.5 L24.65,351.19 C18.72,348.53 13.35,351.73 28.05,387.77 C38.48,407.63 57.95,434.46 82.58,455.56 C106.86,477.09 135.95,491.85 157.15,498.24 C266.78,532.47 384.37,488.73 441.93,386.02 C470.2,334.88 481.7,272.48 471.95,211.33 Z M9.88,268.5 C10.3848994,270.302032 10.2542503,272.222928 9.51,273.94 C9.21748455,272.12215 9.34403597,270.261502 9.88,268.5 Z M15.94,321.1 L16.19,320.1 C16.3523285,320.522334 16.5358959,320.936195 16.74,321.34 C16.77,322.51 16.41,322.47 15.94,321.1 Z M250.15,3.39 C258.335452,1.76313314 266.797386,2.20307123 274.77,4.67 C266.94,4.93 257.55,3.9 250.15,3.39 Z"></path>
                    <path d="M111.99,442.33 C114.15,443.71 116.28,445.07 118.59,446.4 C115.85,444.65 113.72,443.36 111.99,442.33 Z"></path>
                    <polygon points="26.65 346.61 27 347.04 27.13 347.51 27.27 347.73 27.16 347.2 27.62 347.89 26.49 344.94 26.49 345.02 24.94 339.8 24.63 339.55 26.56 345.71"></polygon>
                    <polygon points="25.22 341.73 24.94 341.29 25.45 342.24"></polygon>
                    <path d="M24.94,341.26 L24.23,339.8 L24.4,341.47 C24.47,341.08 24.54,340.83 24.94,341.26 Z"></path>
                    <polygon points="24.94 341.26 24.94 341.26 24.94 341.29"></polygon>
                    <path d="M19.99,340.06 L17.15,333.29 C16.5,332.29 17.39,330.13 16.81,329.14 C15.72,326.79 12.17,320.76 13.37,324.66 C15.24,330.3 16.66,333.98 18.37,338.99 C18.7459735,339.926169 19.173289,340.840891 19.65,341.73 C19.59,341.26 20.54,340.96 19.99,340.06 Z"></path>
                    <path d="M19.65,341.81 C19.7350274,342.01894 19.8387836,342.219758 19.96,342.41 C19.8768346,342.17467 19.7731003,341.947124 19.65,341.73 C19.65,341.73 19.59,341.81 19.65,341.81 Z"></path>
                </g>
                <g transform="translate(34.000000, 72.000000)" fill="#CBC5C2" id="Shape">
                    <path d="M451.71,289.96 C451.12,291.96 450.43,294.54 449.71,297.79 C450.43,295.1 451.05,292.54 451.71,289.96 Z"></path>
                    <path d="M476.18,188.29 C465.59,158.29 459.69,153.96 456.51,156.84 C456.011526,155.737473 455.454052,154.662584 454.84,153.62 L454.69,154.95 C455.33,156.36 455.69,156.36 455.47,154.95 C455.6,155.75 455.85,156.49 456,157.25 C453.6,160.25 453,167.74 453.18,168.64 C453.56,186.82 455.91,201.64 457.11,221.15 C458.44,238.78 459.11,261.15 451.71,289.91 C459.71,263.26 451.16,338.58 421.96,369.26 C402.03,392.97 378.45,420.74 347.14,441.46 C316.24,461.83 278.43,476.64 242.57,475.61 C223.218262,475.853833 203.913878,473.639458 185.12,469.02 C79.12,439.45 1.93,324.88 25.97,200.87 C32.1,168.8 41.2,140.87 54.75,116.69 C65.25,99.35 79.86,83.56 91.84,73.03 C110.1,55.58 127.84,42.91 146.08,33.03 C125.5,43.51 111.54,53.57 92.67,71.47 C80.26,83.75 98.59,59.69 108.16,52.67 C111.71,48.99 119.73,47.2 123.68,44.33 C132.68,38.47 140.76,32.85 151.01,27.33 C155.21,24.64 155.65,27.5 157.83,26.39 C172.06,20.31 182.69,13.21 192.83,12.18 C200.29,10.55 207.19,10.81 213.83,10.3 C214.55,10.21 215.19,10.21 215.92,10.13 C223.16,14.44 228.36,11.24 242.32,14.28 C232.75,12.44 249.51,11.03 258.32,15.18 C270.71,21.72 289.41,19.63 304.52,25.57 C308.3,26.82 312.52,27.63 316.89,29.52 C339.65,38.71 361.18,47.28 381.48,64.13 C387.03,68.28 392.48,71.13 396.91,75.13 C400.1,78.13 402.91,81.85 405.39,84.38 C409.56,88.06 412.39,92 415.71,95.2 C412.31,91.31 410.18,88.2 405.83,84.46 C403.08,81.85 408.94,85.1 410.92,86.68 C411.81,87.37 411.81,89.77 412.63,90.41 L417.63,95.5 C418.52,96.18 417.43,96.96 417.9,97.3 C420.21,99.83 423.12,100.98 424.21,102.95 L426.6,107.14 L428.16,109.53 L429.38,110.99 C432.38,114.62 435.53,118.99 438.48,122.99 L438.55,122.85 C436.920253,120.326441 435.67023,117.577065 434.84,114.69 C435.24,116.02 434.84,116.05 434.06,114.77 L434,113.36 C435.62,115.5 437.22,117.6 437.68,120.29 C437.68,120.29 438.48,121.11 438.92,121.49 C439.12,122.31 438.72,122.49 438.55,122.85 L439.48,124.31 C439.215171,122.528218 438.800364,120.771979 438.24,119.06 C434.37,112.63 431.44,106.06 427.11,100.82 L425.8,99.82 L425.2,98.19 L423.43,95.79 L422.74,95.02 C422.25,94.68 422.21,94.89 422.25,95.32 L421.63,93.83 L422.74,95.02 L423.12,95.32 L419.12,89.72 L418.18,88.72 C417.05,87.52 415.96,86.32 415.79,85.07 L415.1,84.07 L415.1,84.37 L414.95,83.89 L411.57,80 L404.57,72.43 C389.74,55.52 372.45,44.19 352.82,32.63 C341.9,26.86 331.26,21.47 320.32,17.27 C311.905761,13.9540654 303.233238,11.3352512 294.39,9.44 C290.52,7.64 287.39,6.31 287.39,6.35 C274.155028,3.22301036 260.668915,1.27538813 247.09,0.53 C245.36,0.45 243.52,0.32 241.63,0.27 C224.98568,-0.262704618 208.334268,1.0790691 191.99,4.27 C189.79,5.38 188.28,6.41 185.11,6.79 C182.656384,6.86205793 180.208977,7.07574698 177.78,7.43 C173.34,8.29 169.16,10.14 164.86,11.43 L160.37,13.27 L160.3,13.36 C157.97,14.5 158.79,14.64 160.42,14.55 C161.5,14.38 162.42,14.34 163.37,14.21 C162.37,14.34 161.37,14.5 160.42,14.55 C158.00388,14.9712692 155.610781,15.5153071 153.25,16.18 C152.36,16.61 151.36,17.03 150.45,17.54 L151.74,16.77 C152.24,16.61 152.74,16.34 153.25,16.18 L158.86,13.91 C158.86,13.91 158.93,13.83 158.95,13.83 L160.37,13.27 L162.37,12.27 C152.32,15.14 143.15,20.05 133.54,24.21 C131.57453,25.1486336 129.699908,26.2667113 127.94,27.55 C121.61,31.83 115.4,36.11 110.67,37.26 L106.07,40.64 L107.07,40.18 C106.34,40.64 105.78,40.9 105.25,41.18 C98.97,46.02 92.09,50.18 86.34,55.94 C74.0977712,66.3978331 63.0051121,78.1307757 53.25,90.94 C-12.24,175.16 -18.3,298.74 43.16,393.16 C76.16,444.26 125.06,480.33 178.68,495.86 C286.98,526.47 399.81,470.05 455.91,363.67 C466.91,343.38 478.09,311.07 481.47,277.52 C485.29,244 481.64,210.28 476.18,188.29 Z M406.47,75.99 C405.050491,74.7902686 403.904736,73.3001058 403.11,71.62 C404.728978,72.6142534 405.925094,74.1699158 406.47,75.99 Z M264.69,3.54 C270.559197,4.00438306 276.362064,5.09388733 282,6.79 C276.34,5.68 270.59,4.65 264.69,3.54 Z M66.18,78.82 C61.18,84.68 55.18,92.43 49.35,98.07 C53.3961855,90.4383903 59.1570992,83.84911 66.18,78.82 Z"></path>
                    <polygon points="450.27 139.76 449.07 136.63 449.32 138.38"></polygon>
                    <polygon points="447.83 133.26 447.5 132.87 447.99 133.8"></polygon>
                    <path d="M447.5,132.83 L446.5,131.41 L446.95,133.04 C446.99,132.65 447.1,132.4 447.5,132.83 Z"></path>
                    <path d="M436.64,122.6 C435.04,120.45 430.31,115.66 432.33,119.01 C435.33,124.01 437.51,127.18 440.33,131.67 C443.11,135.01 445,138.67 447.15,142.58 L448.39,145.96 L447.11,141.17 C446.49,138.94 444.2,137.02 442.27,134.06 C441.85,133.69 443.07,133.13 442.27,132.36 L437.87,126.49 C437.06,125.72 437.46,123.36 436.64,122.6 Z"></path>
                </g>
                <g transform="translate(82.000000, 9.000000)" fill="#8A7E78" id="Shape">
                    <path d="M368.59,38.72 C318.99,6.46 259.94,-5.95 205.07,3.24 C149.48,12.96 102.21,45.53 66.69,88.8 C31.59,131.5 6.32,185.8 1.04,246.19 C-1.25,269.6 6.7,302.72 16.47,334.82 C25.75,367.05 37.67,397.82 51.08,415.53 C64.29,429.74 72.4,435.16 77.29,436.07 C80.36,439.8 84.66,443.77 90.22,451.01 C83.11,442.49 97.96,454.01 104.36,462.74 C113.36,476.56 134.13,483.57 150.11,492.52 C154.29,494.41 158.89,495.95 163.97,497.95 C190.35,509 217.21,511.14 246.71,510.15 C254.58,509.68 261.24,507.15 267.63,505.66 C272.31,504.59 277.63,505.15 281.31,503.82 C286.635294,502.371824 291.86261,500.58485 296.96,498.47 C291.52,500.19 287.66,501.63 281.59,503.47 C277.59,504.64 284.13,500.99 286.7,499.89 C287.7,499.28 289.88,500.27 290.96,499.67 L298.2,496.67 C299.2,496.07 299.45,497.44 299.98,497.15 C303.53,495.86 305.82,493.42 308.24,493.15 L313.24,491.85 L316.03,490.78 L317.83,489.72 C322.16,487.02 327.25,484.2 331.83,481.64 L331.77,481.54 C328.973729,482.917701 325.976395,483.842554 322.89,484.28 C324.28,484.07 324.26,484.46 322.8,485.14 L321.47,484.97 C323.86,483.56 326.28,482.18 329.01,482.15 C329.01,482.15 329.95,481.37 330.48,480.98 C331.37,480.86 331.43,481.25 331.77,481.54 L333.41,480.77 C331.835136,480.726518 330.260701,480.870869 328.72,481.2 C348.37,473.5 368.72,464.68 379.39,456.81 C381.01,454.89 382.94,454.37 385.65,452.66 C387.89,451.46 390,450.47 392.09,449.11 C395.77,446.27 397.86,441.92 401.26,438.79 L425.84,414.79 C427.41,412.9 432.25,413.71 433.25,412.04 C437.36,405.33 439.6,397.75 443.42,394.5 C443.87852,393.983336 444.096554,393.296529 444.02,392.61 C444.82,391.29 445.64,389.91 446.51,388.55 C447.02,388.76 447.51,388.93 447.57,388.76 C449.229129,385.657053 450.662831,382.438742 451.86,379.13 C459.079107,365.361356 465.24022,351.063428 470.29,336.36 C472.71,334.36 476.02,329.6 478.29,320.7 C505.93,215.29 460.75,98.04 368.59,38.72 Z M269.29,498.16 C271.114239,497.47603 273.116379,497.430207 274.97,498.03 C273.113281,498.519731 271.167181,498.564272 269.29,498.16 Z M298.91,492.16 C299.255306,492.085524 299.59086,491.971436 299.91,491.82 C299.91,492 300.04,492.08 300.29,492.13 L298.91,492.16 Z M307.41,489.6 L305.9,490.41 L304.15,490.41 L303.28,490.67 L320.06,484.55 L307.41,489.6 Z M431.29,395.16 C425.29,404.45 405.07,421.95 403.54,423.97 C392.84,435.65 385.05,445.45 376.28,450.8 C370.08,455.55 352.5,469.67 348.5,471.55 C344.73,473.69 299.3,492.65 277.17,496.46 C277.17,496.46 277.17,496.54 277.17,496.67 C275.09,497.02 272.98,497.23 270.82,497.4 C248.07,499.97 226.71,501.5 203.37,496.72 C191.129533,494.447441 179.195676,490.755865 167.81,485.72 C145.81,476.3 125.31,466.84 107.81,448.86 C102.01,442.86 91.09,433.72 84.36,426.96 C84.3874788,424.462988 84.0126811,421.977844 83.25,419.6 C75.99,403.17 74.25,389.99 65.73,372.69 C20.89,252.16 13.14,283.08 56.03,214.35 C65.18,184.06 62.34,160.35 83.03,127.78 C103.46,95.64 120.17,62.3 153.32,47.62 C169.42,39.49 202.19,41.62 223.04,37.1 C331.04,17.84 432.73,154.23 448.36,208.41 C454.98,240.33 457.36,266.06 454.25,294.13 C451.91,309.91 449.9,346.72 446.25,367.52 L438.92,386.09 C436.29,389.26 432.89,392.43 431.29,395.16 Z"></path>
                    <polygon points="348.25 470.57 349.54 469.32 346.61 470.91"></polygon>
                    <polygon points="343.33 472.62 342.93 472.97 343.82 472.36"></polygon>
                    <path d="M342.93,473.01 L341.46,474.07 L343.08,473.56 C342.66,473.52 342.46,473.48 342.93,473.01 Z"></path>
                    <path d="M343.68,478.7 C343.26,479.12 342.81,477.84 341.91,478.7 L335.22,482.63 C334.22,483.37 332,482.72 331.03,483.37 C328.61,484.81 322.63,489.28 326.48,487.55 C332.2,484.99 335.89,483.1 341.02,480.71 L352.3,472.61 L355.67,470.87 L350.94,472.75 C348.68,473.52 346.85,476.61 343.68,478.7 Z"></path>
                </g>
            </g>
        </g>
    </g>
</svg>