<?xml version="1.0" encoding="UTF-8"?>
<svg width="848px" height="130px" viewBox="0 0 848 130" version="1.1" xmlns="http://www.w3.org/2000/svg" xmlns:xlink="http://www.w3.org/1999/xlink">
    <!-- Generator: Sketch 48.2 (47327) - http://www.bohemiancoding.com/sketch -->
    <title>logo</title>
    <desc>Created with Sketch.</desc>
    <defs></defs>
    <g id="menu-bar" stroke="none" stroke-width="1" fill="none" fill-rule="evenodd" transform="translate(-777.000000, -88.000000)">
        <g id="logo" transform="translate(777.000000, 88.000000)" fill-rule="nonzero">
            <path d="M178.13,81.36 C178.13,89.9 180.2,92.46 186.06,92.46 L186.06,94.54 L160.91,94.54 L160.91,92.46 C166.78,92.46 168.84,90.03 168.84,81.36 L168.84,37.78 C168.84,28.99 166.78,26.67 160.91,26.67 L160.91,24.6 L208.91,24.6 L208.91,37.05 L207.3,37.05 C205.59,28.5 203.52,28.05 195.95,28.05 L178.13,28.05 L178.13,57.35 L196.32,57.35 C201.56,57.35 203.52,54.67 204.13,49.05 L206.13,49.05 L206.13,68.71 L204.13,68.71 C203.89,63.71 201.44,60.77 196.56,60.77 L178.13,60.77 L178.13,81.36 Z" id="Shape" fill="#FEFEFE"></path>
            <path d="M233.91,84.41 C233.91,91.5 236.6,91.97 241.61,92.46 L241.61,94.54 L217.8,94.54 L217.8,92.46 C222.8,91.97 225.49,91.46 225.49,84.41 L225.49,57.92 C225.49,50.92 222.8,50.48 217.8,49.99 L217.8,47.91 L241.61,47.91 L241.61,50 C236.61,50.49 233.91,51 233.91,57.93 L233.91,84.41 Z" id="Shape" fill="#FEFEFE"></path>
            <path d="M278.83,60.85 L276.88,60.85 C276.03,53.41 272.25,48.76 265.41,48.76 C260.04,48.76 257.23,52.43 257.23,55.6 C257.23,59.6 259.3,60.85 269.56,66.83 C278.1,71.83 281.03,76.96 281.03,82.21 C281.03,88.43 275.54,95.64 265.77,95.64 C263.69,95.64 261.87,95.64 257.11,93.33 C256.488095,93.0198932 255.804821,92.852491 255.11,92.84 C254.063338,92.7974938 253.138387,93.5154928 252.92,94.54 L250.85,94.54 L250.85,79.54 L253,79.54 C254.34,86.86 257.89,93.46 265.57,93.46 C269.97,93.46 274.48,90.4 274.48,85.27 C274.48,79.9 270.82,77.7 261.91,72.58 C256.91,69.65 251.41,66 251.41,59.15 C251.41,52.93 256.17,46.82 264.96,46.82 C266.529511,46.770394 268.096641,46.9764176 269.6,47.43 C273.37,48.54 273.5,48.54 274.23,48.54 C275.230292,48.50238 276.184258,48.1087359 276.92,47.43 L278.87,47.43 L278.83,60.85 Z" id="Shape" fill="#FEFEFE"></path>
            <path d="M298.49,57.92 C298.49,50.92 295.81,50.48 290.92,49.99 L290.92,47.91 L314.6,47.91 L314.6,50 C309.6,50.49 306.91,51 306.91,57.93 L306.91,69.4 L334,69.4 L334,57.92 C334,50.92 331.31,50.48 326.3,49.99 L326.3,47.91 L350.11,47.91 L350.11,50 C345.11,50.49 342.41,51 342.41,57.93 L342.41,84.42 C342.41,91.51 345.1,91.98 350.11,92.47 L350.11,94.55 L326.3,94.55 L326.3,92.47 C331.3,91.98 334,91.47 334,84.42 L334,72.82 L306.89,72.82 L306.89,84.41 C306.89,91.5 309.59,91.97 314.58,92.46 L314.58,94.54 L290.9,94.54 L290.9,92.46 C295.9,91.97 298.47,91.46 298.47,84.41 L298.49,57.92 Z" id="Shape" fill="#FEFEFE"></path>
            <path d="M377.47,84.65 C377.47,92.46 378.47,92.46 383.33,92.46 L390.53,92.46 C393.95,92.46 398.53,92.11 401.28,85.46 L403.48,85.46 L401.28,94.46 L361.48,94.46 L361.48,92.38 C367.1,91.89 369.17,91.28 369.17,84.33 L369.17,57.92 C369.17,51.2 367.1,50.48 361.48,49.99 L361.48,47.91 L400.56,47.91 L401.28,56.7 L399.08,56.7 C397.73,49.99 392.73,49.99 388.58,49.99 L377.47,49.99 L377.47,69.99 L385.78,69.99 C392.85,69.99 393.23,66.2 393.46,63.64 L395.54,63.64 L395.54,79.14 L393.46,79.14 C393.23,76.46 393.1,72.8 385.78,72.8 L377.47,72.8 L377.47,84.65 Z" id="Shape" fill="#FEFEFE"></path>
            <path d="M420.44,57.92 C420.44,50.92 417.76,50.48 412.88,49.99 L412.88,47.91 L436.06,47.91 C439.73,47.91 455.06,47.91 455.06,60.12 C455.06,64.75 451.89,69.52 444.33,71.71 C449.2,74.04 451.4,76.96 457.99,85.99 C462.38,91.99 464.71,92.11 468.99,92.46 L468.99,94.54 L455.07,94.54 C452.39,91.74 451.53,90.63 444.82,81.48 C439.08,73.55 436.27,73.55 432.97,73.55 L428.97,73.55 L428.97,84.41 C428.97,91.5 431.53,91.97 436.54,92.46 L436.54,94.54 L412.87,94.54 L412.87,92.46 C417.87,91.97 420.43,91.46 420.43,84.41 L420.44,57.92 Z M428.98,71.22 L435.09,71.22 C440.21,71.22 446.19,69.39 446.19,60.48 C446.19,54.26 443.4,49.99 436.31,49.99 L429,49.99 L428.98,71.22 Z" id="Shape" fill="#FEFEFE"></path>
            <path d="M544,44.49 C540.58,31.31 533.38,25.57 521.3,25.57 C504.45,25.57 495.42,39.12 495.42,57.07 C495.42,78.07 506.27,91.85 522.03,91.85 C533.03,91.85 541.18,86.73 546.45,76.48 L548.27,78.19 C543.63,89.29 532.52,96.25 519.1,96.25 C502.24,96.25 484.67,84.78 484.67,61.46 C484.67,39.25 499.93,22.89 520.81,22.89 C529.6,22.89 536.2,25.81 540.35,25.81 C541.942283,25.9347284 543.446232,25.063393 544.13,23.62 L546.07,23.62 L546.07,44.49 L544,44.49 Z" id="Shape" fill="#FEFEFE"></path>
            <path d="M566.08,85.15 C565.64087,86.148785 565.389995,87.2200883 565.34,88.31 C565.34,91.5 568.88,92.22 570.34,92.46 L570.34,94.54 L555.21,94.54 L555.21,92.46 C559.72,91.46 560.93,90.46 563.88,82.46 L577.06,47.06 L583.65,47.06 L596.65,82.83 C599.35,90.15 600.45,91.97 606.3,92.46 L606.3,94.54 L584.5,94.54 L584.5,92.46 C587.19,92.22 590,91.85 590,89.29 C589.921656,88.1471462 589.633518,87.028491 589.15,85.99 L585.61,76.11 L569.37,76.11 L566.08,85.15 Z M584.5,72.93 L577.5,53.65 L570.3,72.93 L584.5,72.93 Z" id="Shape" fill="#FEFEFE"></path>
            <path d="M631.26,84.41 C631.26,91.41 633.7,91.97 638.96,92.46 L638.96,94.54 L615.28,94.54 L615.28,92.46 C620.89,91.97 622.85,91.36 622.85,84.41 L622.85,57.92 C622.85,50.92 620.14,50.48 615.28,49.99 L615.28,47.91 L638,47.91 C644.21,47.91 648.37,48.76 650.56,49.62 C652.56,50.36 658.5,53.77 658.5,60.85 C658.5,73.55 642.5,73.92 640.07,73.92 C637.102503,73.9180391 634.146672,73.5485602 631.27,72.82 L631.26,84.41 Z M631.26,70.5 C633.294741,71.0325044 635.386886,71.3145914 637.49,71.34 C644.34,71.34 649.49,67.81 649.49,61.09 C649.49,54.63 645.09,49.99 638.02,49.99 L631.29,49.99 L631.26,70.5 Z" id="Shape" fill="#FEFEFE"></path>
            <path d="M682.9,84.41 C682.9,91.5 685.59,91.97 690.6,92.46 L690.6,94.54 L666.79,94.54 L666.79,92.46 C671.79,91.97 674.47,91.46 674.47,84.41 L674.47,57.92 C674.47,50.92 671.79,50.48 666.79,49.99 L666.79,47.91 L690.6,47.91 L690.6,50 C685.6,50.49 682.9,51 682.9,57.93 L682.9,84.41 Z" id="Shape" fill="#FEFEFE"></path>
            <path d="M725.51,84.41 C725.51,91.5 728.21,91.97 733.07,92.46 L733.07,94.54 L709.15,94.54 L709.15,92.46 C714.15,91.97 716.84,91.46 716.84,84.41 L716.84,51 L709.52,51 C701.52,51 700.72,57.35 700.35,60 L698.41,60 L698.77,45.59 L700.84,45.59 C702.68,47.06 703.91,47.91 708.04,47.91 L734.31,47.91 C738.44,47.91 739.67,47.06 741.5,45.59 L743.57,45.59 L743.93,60 L742,60 C741.62,57.31 740.89,51 732.84,51 L725.52,51 L725.51,84.41 Z" id="Shape" fill="#FEFEFE"></path>
            <path d="M753.12,85.15 C752.678687,86.1475796 752.43096,87.2199338 752.39,88.31 C752.39,91.5 755.93,92.22 757.39,92.46 L757.39,94.54 L742.25,94.54 L742.25,92.46 C746.77,91.46 747.99,90.46 750.91,82.46 L764.1,47.06 L770.7,47.06 L783.76,82.83 C786.44,90.15 787.54,91.97 793.4,92.46 L793.4,94.54 L771.55,94.54 L771.55,92.46 C774.24,92.22 777.04,91.85 777.04,89.29 C776.957016,88.147901 776.669091,87.0300714 776.19,85.99 L772.66,76.11 L756.42,76.11 L753.12,85.15 Z M771.55,72.93 L764.55,53.65 L757.34,72.93 L771.55,72.93 Z" id="Shape" fill="#FEFEFE"></path>
            <path d="M820.51,87.09 C820.51,91.01 821.85,91.85 826.24,91.85 L834.79,91.85 C840.65,91.85 841.25,90.51 844.91,81.61 L847.11,81.61 L843.33,94.54 L804.52,94.54 L804.52,92.46 C809.52,91.97 812.2,91.46 812.2,84.41 L812.2,57.92 C812.2,50.92 809.52,50.48 804.52,49.99 L804.52,47.91 L828.2,47.91 L828.2,50 C822.33,50.49 820.51,51.7 820.51,57.93 L820.51,87.09 Z" id="Shape" fill="#FEFEFE"></path>
            <path d="M113,47.82 C108.78,22.43 88.43,3.64 64.07,1.11 C60.3941936,0.683223214 56.6835613,0.64635153 53,1 C51.1355501,1.15441447 49.2821594,1.42156989 47.45,1.8 C47.2929364,1.85352655 47.1326089,1.89694859 46.97,1.93 L47.22,1.85 L45.92,2.08 C44.4954786,2.71722483 42.9921642,3.1611566 41.45,3.4 C40.9441561,3.49643912 40.4461327,3.6301367 39.96,3.8 C37.6357233,4.62113151 35.3675619,5.59320067 33.17,6.71 L33.67,6.52 L34.06,6.35 C34.0405887,6.35686292 34.0194113,6.35686292 34,6.35 L34.25,6.23 L35.34,5.77 C35.4428243,5.7150015 35.549822,5.66818999 35.66,5.63 L36.59,5.34 L35.34,5.77 C34.8281404,6.04775811 34.3368782,6.36189862 33.87,6.71 C33.58,6.95 33.12,7.27 32.96,7.41 C33.21,7.2 33.52,6.95 33.87,6.71 C34.22,6.47 34.28,6.28 33.7,6.48 L32.7,6.94 C31.7,7.46 30.76,7.85 29.84,8.44 C29.39,8.8 28.93,9.16 28.49,9.58 C28.019255,9.92555489 27.486138,10.1768329 26.92,10.32 C22.4177753,13.3548752 18.3762618,17.0225487 14.92,21.21 C14.63,21.47 14.33,21.76 13.97,22.04 C14.1129732,21.8835709 14.2912575,21.7635719 14.49,21.69 C13.8,22.54 13.16,23.48 12.49,24.39 C12.2314924,24.6638121 11.9468015,24.9116607 11.64,25.13 C8.86,27.07 7.35,31.49 5.51,34.9 C5.01555729,35.8429448 4.59431684,36.822496 4.25,37.83 C1.72,43.37 0.78,49.11 0.52,55.47 C0.457413782,57.0145712 0.615677377,58.5601667 0.99,60.06 C1.1,61.06 0.99,62.2 1.06,63.06 C1.18470299,64.2439175 1.44990232,65.4087804 1.85,66.53 C1.54834017,65.4133519 1.30468087,64.2818382 1.12,63.14 C1.12,62.23 1.5,63.73 1.74,64.3 C1.87,64.54 1.59,64.98 1.74,65.22 L2.26,66.82 C2.37,67.06 2.05,67.09 2.11,67.2 C2.33,67.98 2.82,68.53 2.83,69.04 L2.88,70.16 L3.05,70.8 L3.26,71.19 L4.72,74.32 C4.4873869,73.7116993 4.35238777,73.0704534 4.32,72.42 L4.56,72.96 C4.63914246,73.2086145 4.67301294,73.4694172 4.66,73.73 C4.66,73.73 4.81,73.94 4.87,74.04 C4.93,74.14 4.8,74.26 4.72,74.32 L4.87,74.69 C4.90003687,74.3573433 4.90003687,74.0226567 4.87,73.69 C4.87,73.76 4.93,73.83 4.96,73.89 C4.99,73.95 5.25,75.07 5.39,75.66 C5.78,76.47 5.97,76.36 6.2,76.47 C5.27,74.11 4.54,71.73 3.7,69.29 C3.7,69.16 3.7,69.05 3.64,68.93 L3.48,68.59 L3.48,68.23 L3.48,67.97 C3.48,67.74 3.41,67.42 3.34,66.97 L3.34,66.91 L3.2,65.91 L3.12,65.6 C2.97726916,65.2868239 2.94211058,64.9352381 3.02,64.6 L3.02,64.33 L3.02,64.28 L2.9,63.15 L2.9,60.87 C2.69703776,55.995267 3.16815342,51.1158549 4.3,46.37 C4.9,44.47 5.45,42.6 6.18,40.84 C6.18,41.16 6.4,41.32 6.25,41.66 C5.16,45.2 3.8,47.91 3.73,50.36 C3.62009544,52.0548869 3.62009544,53.7551131 3.73,55.45 C3.73,54.21 3.73,52.97 3.81,51.67 C4.48553548,47.1946679 5.73586399,42.8252403 7.53,38.67 C8.86938443,35.1125903 10.6000084,31.7150669 12.69,28.54 C13.3502959,27.6317283 14.0719823,26.769714 14.85,25.96 C16.21,24.51 18.4,21.55 19.71,20.18 C20.32,19.18 20.28,18.7 20.06,18.4 C20.17,18.32 20.28,18.19 20.4,18.1 L21.98,16.82 C22.73,16.1 23.51,15.48 24.29,14.82 C25.5092178,13.6655825 26.8091792,12.5995474 28.18,11.63 C30.06,10.11 32.99,9.48 36.38,8.06 C36.93,7.88 36.55,7.36 37.7,7.06 C40.29,6.23 42.57,5.77 45.01,5.22 C46.13,5.02 47.78,3.97 49.01,3.97 C51.74,3.49 58.65,4.28 54.6,4.4 C49.4395904,4.50955359 44.3293037,5.43777607 39.46,7.15 C44.4968519,5.58293762 49.718743,4.68852484 54.99,4.49 C59.3928806,4.13437827 63.8239653,4.4071122 68.15,5.3 C74.6243926,7.14947079 80.7378876,10.0844894 86.23,13.98 C109.71,29.84 114.38,61.07 100.85,83.5 C98.3495242,87.3865155 95.3954193,90.9616538 92.05,94.15 C86.05,100.29 77.3,104.23 68.8,106.15 C60.3,108.07 51.8,107.54 44.73,107.06 C34.94,107.06 21.73,96.38 27.24,99.33 C22.7632164,96.6994341 18.8103511,93.2652553 15.58,89.2 C12.74,85.88 10.82,83.1 8.06,80.13 C7.58945171,79.6526973 7.03745526,79.263252 6.43,78.98 L6.28,78.48 C6.17,78.02 5.61,77.62 5.28,76.98 C5.62,77.59 6,78.17 6.34,78.79 L6.4,78.94 C4.99,78.35 3.7,79.06 7.22,87.12 C10.6025778,92.9195902 15.0068944,98.0590889 20.22,102.29 C25.3787003,106.637794 31.3368973,109.936203 37.76,112 C63.97,119.66 92.08,109.88 105.85,86.9 C112.751466,75.1182192 115.282889,61.2821323 113,47.82 Z M2.54,60.61 C2.65891311,61.0107751 2.62689602,61.4412272 2.45,61.82 C2.37631608,61.4155916 2.40729797,60.9990573 2.54,60.61 Z M4,72.37 L4.06,72.14 C4.09500047,72.2369806 4.13850302,72.3306784 4.19,72.42 C4.18,72.69 4.1,72.68 4,72.37 Z M60,1.3 C61.9596264,0.944201741 63.974803,1.04342096 65.89,1.59 C64,1.65 61.76,1.42 60,1.3 Z" id="Shape" fill="#A7B241"></path>
            <path d="M122.16,58.77 C119.63,52.06 118.22,51.09 117.46,51.77 C117.342515,51.5215317 117.208896,51.2810179 117.06,51.05 L117.06,51.35 C117.21,51.67 117.3,51.67 117.24,51.35 C117.24,51.53 117.33,51.7 117.37,51.87 C116.914728,52.6383018 116.679486,53.5169995 116.69,54.41 C116.78,58.48 117.35,61.79 117.63,66.16 C118.153743,71.3223375 117.71636,76.5370339 116.34,81.54 C118.25,75.54 116.21,92.43 109.23,99.29 C104.46,104.59 98.83,110.81 91.34,115.44 C83.85,120.07 74.91,123.31 66.34,123.08 C61.7180044,123.13464 57.1058252,122.641198 52.6,121.61 C27.26,114.99 8.79,89.36 14.54,61.61 C15.7570235,54.9908009 18.0830575,48.624635 21.42,42.78 C23.8857376,39.1121843 26.8739396,35.8241514 30.29,33.02 C34.2038791,29.4553106 38.5757652,26.4286202 43.29,24.02 C38.6108692,26.1988954 34.3019652,29.0973672 30.52,32.61 C27.52,35.36 31.94,29.98 34.23,28.41 C35.08,27.59 36.99,27.19 37.94,26.54 C40.09,25.23 42.02,23.98 44.47,22.75 C45.47,22.15 45.58,22.75 46.1,22.54 C49.51,21.18 52.1,19.6 54.46,19.36 C56.1156443,19.1104303 57.7859226,18.9701269 59.46,18.94 L59.96,18.94 C61.69,19.94 62.96,19.19 66.28,19.87 C63.99,19.46 68,19.15 70.09,20.08 C73.09,21.54 77.53,21.08 81.14,22.4 C82.04,22.68 83.04,22.86 84.14,23.28 C89.58,25.34 94.73,27.28 99.58,31.03 C100.91,31.95 102.21,32.6 103.27,33.48 C104.03,34.15 104.71,34.98 105.27,35.55 C106.27,36.37 106.95,37.25 107.74,37.97 C107.014716,37.1054923 106.222249,36.2996506 105.37,35.56 C104.72,34.98 106.12,35.71 106.59,36.06 C106.8,36.21 106.8,36.75 107,36.89 L108.2,38.03 C108.41,38.19 108.2,38.36 108.26,38.44 C108.81,39 109.51,39.26 109.77,39.7 L110.34,40.64 L110.71,41.17 L111.01,41.5 C111.71,42.31 112.48,43.28 113.18,44.19 C112.790791,43.6295149 112.490578,43.0122236 112.29,42.36 C112.39,42.66 112.29,42.67 112.11,42.36 L112.11,42.05 C112.534037,42.4806666 112.837498,43.0151715 112.99,43.6 C112.99,43.6 113.18,43.78 113.29,43.86 C113.4,43.94 113.24,44.09 113.2,44.17 L113.42,44.49 C113.357522,44.0913291 113.257065,43.699546 113.12,43.32 C112.336214,41.8956325 111.447071,40.5318343 110.46,39.24 L110.15,39.01 L110.01,38.65 L109.58,38.11 L109.42,37.94 C109.3,37.86 109.29,37.94 109.3,38.01 L109.15,37.67 L109.42,37.94 L109.51,38.01 L108.51,36.75 L108.29,36.52 C108.024254,36.3121421 107.825934,36.0303181 107.72,35.71 L107.55,35.48 L107.55,35.54 L107.55,35.44 L106.74,34.57 L105.08,32.87 C101.53,29.09 97.4,26.56 92.7,23.97 C90.1777258,22.6760856 87.5834866,21.5275422 84.93,20.53 C82.9111851,19.7887936 80.8384225,19.2037396 78.73,18.78 C77.81,18.38 77.05,18.08 77.05,18.09 C73.8823063,17.3864217 70.6608655,16.9515439 67.42,16.79 C67,16.79 66.56,16.79 66.11,16.73 C62.1327522,16.6142957 58.1543343,16.9159449 54.24,17.63 C53.7367316,17.9272858 53.1791622,18.1210752 52.6,18.2 C52.0113197,18.2164353 51.4238757,18.2631638 50.84,18.34 C49.78,18.53 48.84,18.95 47.76,19.23 L46.68,19.65 C46.12,19.91 46.32,19.94 46.68,19.92 C47.04,19.9 47.16,19.92 47.39,19.84 C47.16,19.84 46.9,19.91 46.68,19.92 C46.1041624,20.0146135 45.5334428,20.1381026 44.97,20.29 C44.76,20.38 44.52,20.48 44.3,20.59 L44.61,20.42 L44.97,20.29 L46.31,19.78 L46.65,19.66 L47.14,19.42 C44.792678,20.1733151 42.4919902,21.0648734 40.25,22.09 C39.7819818,22.2997795 39.3335486,22.5507682 38.91,22.84 C37.6458426,23.759775 36.2546091,24.4907621 34.78,25.01 L33.68,25.77 L33.92,25.67 L33.49,25.9 C31.9091343,26.8992745 30.3958541,28.0016641 28.96,29.2 C26.054392,31.5235326 23.4029478,34.1481606 21.05,37.03 C5.38,55.86 3.93,83.51 18.62,104.62 C26.3838523,115.858052 37.8589279,124.001426 51.03,127.62 C76.92,134.46 103.9,121.84 117.32,98.05 C120.599081,92.088829 122.67506,85.5415085 123.43,78.78 C124.208216,72.0877618 123.778053,65.3101512 122.16,58.77 Z M105.49,33.65 C105.154466,33.3781321 104.881583,33.0370281 104.69,32.65 C105.076129,32.8671267 105.362929,33.2256267 105.49,33.65 Z M71.59,17.44 C72.9905654,17.5472549 74.3772168,17.7917611 75.73,18.17 C74.38,17.92 73,17.69 71.59,17.44 Z M24.13,34.28 C22.93,35.59 21.49,37.28 20.13,38.59 C21.1134604,36.8643404 22.4824096,35.3892977 24.13,34.28 Z" id="Shape" fill="#CBC5B5"></path>
            <path d="M107.92,11.22 C96.2169301,4.0805244 82.3808727,1.27084932 68.82,3.28 C55.52,5.46 44.22,12.74 35.73,22.42 C27.24,32.1 21.29,44.12 20.03,57.63 C19.48,62.86 21.38,70.27 23.72,77.45 C26.06,84.63 28.79,91.56 32,95.51 C35.16,98.68 37.09,99.89 38.27,100.1 C39,100.94 40.03,101.82 41.36,103.44 C39.66,101.54 43.21,104.1 44.74,106.07 C46.89,109.16 51.86,110.73 55.68,112.73 C56.68,113.15 57.77,113.5 58.99,113.94 C65.3,116.42 71.72,116.89 78.78,116.67 C80.4716792,116.476952 82.1442006,116.142447 83.78,115.67 C84.9,115.43 86.16,115.55 87.05,115.26 C88.3184797,114.931473 89.5671765,114.530822 90.79,114.06 C89.49,114.44 88.56,114.77 87.12,115.18 C86.12,115.44 87.72,114.62 88.34,114.38 C88.59,114.24 89.1,114.46 89.34,114.38 L91.07,113.71 C91.31,113.57 91.36,113.88 91.49,113.81 C92.34,113.52 92.89,112.98 93.49,112.91 L94.67,112.62 L95.34,112.39 L95.77,112.15 C96.77,111.54 98.02,110.91 99.12,110.34 C98.447676,110.647833 97.733114,110.853438 97,110.95 C97.33,110.95 97.33,110.95 97,111.14 L96.68,111.14 C97.2170901,110.779599 97.8359451,110.559562 98.48,110.5 L98.84,110.24 C99.05,110.24 99.06,110.3 99.14,110.37 L99.54,110.2 C99.1644367,110.186325 98.7885606,110.21653 98.42,110.29 C103.11,108.57 107.98,106.6 110.53,104.84 C110.979444,104.455041 111.48534,104.141385 112.03,103.91 C112.56,103.64 113.03,103.42 113.57,103.11 C114.45,102.48 114.95,101.51 115.76,100.8 L121.64,95.43 C122.01,95 123.17,95.19 123.41,94.81 C124.41,93.31 124.93,91.62 125.84,90.89 C125.945704,90.7771282 125.99684,90.62372 125.98,90.47 C126.17,90.17 126.37,89.86 126.58,89.56 C126.7,89.56 126.81,89.64 126.83,89.56 C127.220901,88.8680753 127.55532,88.1457303 127.83,87.4 C129.54722,84.3381926 131.018514,81.144816 132.23,77.85 C133.212497,76.9042748 133.879466,75.6785879 134.14,74.34 C140.75,50.72 130,24.49 107.92,11.22 Z M84.16,114 C84.6018459,113.855672 85.0781541,113.855672 85.52,114 C85.0722184,114.100335 84.6077816,114.100335 84.16,114 Z M91.24,112.65 C91.3192028,112.636001 91.3964274,112.612498 91.47,112.58 C91.47,112.58 91.47,112.63 91.56,112.65 L91.24,112.65 Z M93.24,112.08 L92.88,112.26 L92.46,112.26 L92.26,112.32 L96.26,110.95 L93.24,112.08 Z M122.92,91 C121.48,93.08 116.65,97 116.28,97.44 C113.72,100.06 111.86,102.25 109.76,103.44 C108.28,104.5 104.08,107.66 103.12,108.08 C102.16,108.5 91.36,112.8 86.06,113.65 C85.56,113.73 85.06,113.77 84.54,113.81 C79.1,114.39 73.99,114.73 68.41,113.66 C65.4919368,113.153548 62.6382126,112.328618 59.9,111.2 C54.64,109.09 49.74,106.98 45.56,102.95 C44.17,101.62 41.56,99.57 39.95,98.05 C39.9602973,97.4923079 39.8722861,96.9371606 39.69,96.41 C37.95,92.73 37.54,89.78 35.5,85.92 C24.76,58.92 22.9,65.87 33.16,50.5 C35.35,43.72 34.67,38.42 39.62,31.13 C44.57,23.84 48.5,16.48 56.42,13.2 C60.27,11.38 68.11,11.85 73.09,10.85 C98.93,6.54 123.23,37.05 126.97,49.17 C128.55,56.31 129.12,62.06 128.38,68.34 C127.82,71.87 127.38,80.1 126.48,84.76 L124.72,88.91 C124.065701,89.557995 123.463815,90.2568518 122.92,91 Z" id="Shape" fill="#E5E2D9"></path>
        </g>
    </g>
</svg>